<?xml version="1.0" encoding="UTF-8"?>
<svg version="1.1" xmlns="http://www.w3.org/2000/svg" width="180" height="180">
<path d="M0 0 C59.4 0 118.8 0 180 0 C180 59.4 180 118.8 180 180 C120.6 180 61.2 180 0 180 C0 120.6 0 61.2 0 0 Z " fill="#AEE1FE" transform="translate(0,0)"/>
<path d="M0 0 C10.79341598 7.67750135 14.29045159 21.14519987 16.63916016 33.62060547 C17.60839951 40.01181437 17.54949907 46.46433591 17.46655273 52.91357422 C17.43726542 55.39487399 17.44607308 57.87406488 17.45898438 60.35546875 C17.42983263 82.4428631 17.42983263 82.4428631 10.546875 90.72265625 C8.02865576 92.80209487 6.05902457 93.51869315 2.79296875 93.671875 C-2.58861586 92.37728402 -6.85090316 88.84843963 -11.25390625 85.61328125 C-21.42315814 78.26190187 -34.50880519 73.65743131 -47 73 C-46.4740625 74.3303125 -46.4740625 74.3303125 -45.9375 75.6875 C-44.97882866 79.07480539 -44.96149817 80.69567599 -46 84 C-47 85 -47 85 -49.5625 85.0625 C-50.366875 85.041875 -51.17125 85.02125 -52 85 C-51.68192383 85.85380249 -51.68192383 85.85380249 -51.35742188 86.72485352 C-50.39321828 89.33323614 -49.44653332 91.94765603 -48.5 94.5625 C-48.16613281 95.45775391 -47.83226562 96.35300781 -47.48828125 97.27539062 C-45.67363161 102.33048605 -44.42384289 106.54758635 -45 112 C-46.625 114.9375 -46.625 114.9375 -50 117 C-54.75804405 117.69837639 -59.27187633 117.93030211 -64 117 C-68.42403512 113.40432329 -69.81246524 110.49641682 -70.984375 104.9765625 C-71.20326385 103.97996109 -71.20326385 103.97996109 -71.42657471 102.96322632 C-71.88521455 100.85379868 -72.31763782 98.73995151 -72.75 96.625 C-73.05433763 95.21318455 -73.36031317 93.80172113 -73.66796875 92.390625 C-74.98315814 86.2813957 -76.16714024 80.19675486 -77 74 C-77.58007812 73.97421875 -78.16015625 73.9484375 -78.7578125 73.921875 C-86.05458323 73.39207647 -90.24623248 71.05298566 -95.25 65.6875 C-98.77944312 61.35423083 -99.7131324 57.17199756 -100.4375 51.6875 C-99.65452853 45.08816901 -96.64415931 39.21819524 -91.9375 34.5 C-85.59319033 29.68754288 -77.282961 30.02701356 -69.6472168 29.71972656 C-51.74409382 28.97336235 -31.98291113 25.53883659 -18.44921875 12.64453125 C-16.00066085 9.86597903 -13.75695625 6.94647261 -11.578125 3.953125 C-8.15170172 -0.28749788 -5.21666643 -0.61892653 0 0 Z " fill="#C53B75" transform="translate(128,30)"/>
<path d="M0 0 C-0.00523682 0.82089111 -0.01047363 1.64178223 -0.01586914 2.48754883 C-0.03309918 5.58699271 -0.04554042 8.68641187 -0.05493164 11.78588867 C-0.0623244 13.76547892 -0.07504274 15.74504701 -0.08789062 17.72460938 C-0.11497254 28.42196614 0.36275487 38.5509585 3 48.9375 C3.17789063 49.66517578 3.35578125 50.39285156 3.5390625 51.14257812 C4.01827372 53.09697314 4.50857667 55.04863986 5 57 C5.33357346 58.33327328 5.66697006 59.66659085 6 61 C2.73327211 59.75280791 -0.26247941 58.3260772 -3.3125 56.625 C-13.22673291 51.62362358 -24.56568887 49.77511773 -35.5234375 48.6875 C-38 48 -38 48 -39.28125 46.25390625 C-42.02519601 37.64924947 -43.15347102 28.25254528 -41.5078125 19.33203125 C-39.15574932 15.69425478 -35.62480983 15.43570935 -31.625 14.5625 C-21.04821884 11.93983639 -12.00907294 8.08341445 -3.5234375 1.1015625 C-2 0 -2 0 0 0 Z " fill="#FD90C6" transform="translate(113,48)"/>
<path d="M0 0 C3.19924794 0.26660399 4.69605348 0.71447448 7.0625 2.9375 C18.3678689 20.80727664 20.10852988 50.29286866 15.7109375 70.6875 C14.56816478 74.40465083 12.91384925 77.61886633 11 81 C8.8125 81 8.8125 81 6 80 C0.72348921 74.10815267 -2 65.80111075 -2 58 C-1.38511719 57.70867187 -0.77023438 57.41734375 -0.13671875 57.1171875 C3.52869124 55.25817574 6.42652114 53.69512589 9.0625 50.5 C10.87178558 43.74533384 11.29686478 36.78585769 8.3125 30.375 C4.20484073 26.15632291 0.83995695 24.67906476 -5 24 C-5.41199432 15.76011369 -4.67623588 7.01435382 0 0 Z " fill="#FC7DBA" transform="translate(123,36)"/>
<path d="M0 0 C5.28 0 10.56 0 16 0 C16.06058594 1.31613281 16.12117188 2.63226563 16.18359375 3.98828125 C16.6102046 13.01492043 17.07433411 22.0078171 18 31 C12.39 31 6.78 31 1 31 C-3.17363009 20.91372729 -3.32604721 10.39389754 0 0 Z " fill="#FD7EBA" transform="translate(50,66)"/>
<path d="M0 0 C2.97 0 5.94 0 9 0 C9.44653931 1.30203369 9.44653931 1.30203369 9.90209961 2.63037109 C11.00613059 5.84738932 12.11140485 9.06397471 13.2175293 12.28027344 C13.69621995 13.67300514 14.17441282 15.06590804 14.65209961 16.45898438 C15.33837514 18.46008685 16.02643219 20.46056901 16.71484375 22.4609375 C17.12855225 23.66540527 17.54226074 24.86987305 17.96850586 26.11083984 C18.89664935 28.89366342 18.89664935 28.89366342 20 31 C20.04022391 33.3329866 20.04320247 35.66706666 20 38 C16.04 38 12.08 38 8 38 C6.50803979 33.76098314 5.40233173 29.57521754 4.4921875 25.17578125 C4.22792969 23.90025391 3.96367188 22.62472656 3.69140625 21.31054688 C3.55750488 20.6543335 3.42360352 19.99812012 3.28564453 19.32202148 C2.87381744 17.30671306 2.45488628 15.2929725 2.03515625 13.27929688 C0 3.38923953 0 3.38923953 0 0 Z " fill="#FD7DBA" transform="translate(57,103)"/>
<path d="M0 0 C6.41618911 0.48424069 6.41618911 0.48424069 8.91015625 2.6875 C10.28055708 5.5953039 10.43348717 7.78973915 10.4375 11 C10.45683594 12.03125 10.47617188 13.0625 10.49609375 14.125 C9.88457221 17.66893585 8.80204511 18.81552767 6 21 C3.25 21.75 3.25 21.75 1 22 C0.16788724 16.96145894 -0.1078534 12.1874338 -0.0625 7.0625 C-0.05798828 6.37865234 -0.05347656 5.69480469 -0.04882812 4.99023438 C-0.0371956 3.32678396 -0.01926694 1.6633795 0 0 Z " fill="#FC7DB9" transform="translate(118,66)"/>
<path d="M0 0 C-0.02320313 1.17175781 -0.04640625 2.34351562 -0.0703125 3.55078125 C-0.18890883 12.25464016 -0.10002485 20.48739927 2 29 C-3.07186402 27.22144366 -4.86343793 25.26920948 -8 21 C-9.35488172 16.93535485 -9.53762555 13.25014789 -9 9 C-4.16666667 0 -4.16666667 0 0 0 Z " fill="#FB7CB9" transform="translate(43,68)"/>
<path d="M0 0 C0.99 0.33 1.98 0.66 3 1 C3.33 2.98 3.66 4.96 4 7 C3.01 6.67 2.02 6.34 1 6 C0.67 4.02 0.34 2.04 0 0 Z " fill="#F585BC" transform="translate(72,103)"/>
</svg>
